<?xml version="1.0" encoding="UTF-8"?>
<svg width="4541px" height="6511px" viewBox="0 0 4541 6511" version="1.1" xmlns="http://www.w3.org/2000/svg" xmlns:xlink="http://www.w3.org/1999/xlink">
    <title>Group 8</title>
    <defs>
        <filter id="filter-1">
            <feColorMatrix in="SourceGraphic" type="matrix" values="0 0 0 0 0.027451 0 0 0 0 0.019608 0 0 0 0 0.031373 0 0 0 1.000000 0"></feColorMatrix>
        </filter>
    </defs>
    <g id="Page-1" stroke="none" stroke-width="1" fill="none" fill-rule="evenodd">
        <g id="Artboard" transform="translate(-1083.000000, -412.000000)">
            <g id="Group-8" transform="translate(1104.373440, 434.575918)">
                <g id="Group-7">
                    <g id="Group-4" transform="translate(680.062173, 1931.584288)">
                        <path d="M161.702715,2.2134373 C133.347749,2.1497264 107.452573,12.14458 84.0171883,32.1979981 C48.8641108,62.2781252 24.5658282,130.861663 16.8552761,182.41487 C11.714908,216.783674 11.714908,273.924267 16.8552761,353.836649 C26.6754147,438.129311 54.5072571,522.35628 100.350803,606.517557 C169.116123,732.759472 245.474386,824.462221 321.031452,883.057869 C371.402829,922.121634 396.012022,937.802096 394.85903,930.099253 C386.815601,792.775455 377.035621,692.359913 365.519091,628.852629 C346.545276,524.222552 331.716063,451.806303 321.031452,411.603882 L232.5,214.125998 L161.702715,2.2134373 Z" id="Path-55" fill="#F7AA85"></path>
                        <path d="M194.825243,82.5741775 C178.22643,78.3231875 162.099022,83.5568151 146.443018,98.2750602 C122.959012,120.352428 106.726549,170.689449 101.575516,208.527025 C98.1414945,233.752075 98.1414945,275.690524 101.575516,334.342372 C108.135858,396.209135 126.728915,458.027683 157.354686,519.798015 C203.293344,612.453513 254.304465,679.758924 304.780348,722.765314 C338.430936,751.43624 361.033745,755.080286 372.588776,733.697451 C365.992146,663.554361 360.725652,614.900604 356.789291,587.73618 C343.194961,493.923086 345.333732,497.681373 337.091146,431.218557 C331.076609,382.721271 292.958094,335.006353 268.877996,288.581114 C252.117867,256.268413 227.433616,187.599434 194.825243,82.5741775 Z" id="Path-55" fill="#DF7F5B"></path>
                        <path d="M175.513134,2.21194294 C127.752963,-4.07811845 92.4087403,3.04701894 69.4804671,23.5873551 C35.0880573,54.3978593 11.3155584,124.646677 3.77185281,177.45165 C-1.25728427,212.654965 -1.25728427,271.182992 3.77185281,353.03573 C13.3794962,439.375107 40.6090931,525.647196 85.4606436,611.851997 C152.737969,741.159198 227.443937,835.088586 301.366045,895.106998 C350.64745,935.119273 388.230969,946.366327 414.116604,928.84816" id="Path-55" stroke="#0A050A" stroke-width="50"></path>
                    </g>
                    <path d="M1081.01446,1194.95273 C1081.01446,1167.9676 1072.58108,975.654253 1513.25963,975.654253 C1807.04534,975.654253 2005.25963,975.654253 2107.90253,975.654253 L2703.60585,930.749631 C2879.44491,900.190886 3002.01153,926.182081 3071.30572,1008.72321 C3140.59991,1091.26435 3178.46893,1245.83636 3184.9128,1472.43924 C3235.38213,1576.86489 3271.75508,1687.67247 3294.03166,1804.86197 C3327.44654,1980.64623 3311.44084,2157.9558 3311.44084,2208.31032 C3311.44084,2226.93345 3299.30888,2312.09053 3294.03166,2439.03579 C3290.82312,2516.21835 3278.10795,2607.80999 3274.10931,2699.80318 C3270.37192,2785.78603 3252.21694,2862.08692 3246.20973,2944.08852 C3240.63255,3020.21997 3209.75103,3118.59826 3184.9128,3172.21682 C3057.61946,3447.00637 2930.12975,3457.3051 2694.55919,3683.70849 C2537.51215,3834.64407 2408.84983,3914.32751 2308.57224,3922.7588 L2155.1507,3903.80408 C2104.05089,3903.80408 2052.06647,3903.80408 1999.19743,3903.80408 C1919.89387,3903.80408 1776.89337,3782.93238 1581.71542,3614.1653 C1386.53747,3445.39822 1330.98985,3380.18797 1225.6531,3211.26773 C1120.31635,3042.3475 1129.47751,2924.08111 1094.17878,2805.52332 C1032.86824,2599.59975 995.0542,2479.80914 1009.69409,2346.84148 C1024.05368,2216.41962 1005.62504,2030.02709 1009.69409,1875.2084 C1011.33932,1812.61056 1021.12888,1728.81753 1039.06276,1623.82932 C1067.03056,1355.90168 1081.01446,1212.94282 1081.01446,1194.95273 Z" id="Path-42" fill="#FFB185"></path>
                    <g id="Group" transform="translate(1301.848400, 2067.188170)">
                        <path d="M24.5878622,158.552096 L109.472576,240.583276 C194.553978,262.362515 262.127303,274.032497 312.192551,275.593223 C362.257798,277.153949 439.765206,270.006689 544.714774,254.151445 L643.929584,158.552096 C621.357521,119.694401 602.126362,92.0279536 586.236107,75.5527535 C570.345852,59.0775534 548.296398,43.9437839 520.087746,30.1514448 L167.29378,46.8340839 C127.11245,59.0523366 98.4102778,71.9030231 81.1872622,85.3861434 C63.9642466,98.8692637 45.0977799,123.257914 24.5878622,158.552096 Z" id="Path-33" fill="#FFFDFB"></path>
                        <path d="M213.337784,132.366809 C220.535568,167.887503 233.626693,202.379782 275.119629,227.485833 C316.612564,252.591883 374.204361,247.613872 412.328246,232.870973 C450.452131,218.128073 471.872244,179.686935 483.354715,146.436039 C491.009696,124.268775 487.830499,87.830812 473.817125,37.1221491 L225.833855,37.1221491 C212.704619,76.9381267 208.539262,108.686347 213.337784,132.366809 Z" id="Path-34" fill="#141113"></path>
                        <path d="M246.261912,73.9432953 C239.790511,91.5016675 239.790511,108.409912 246.261912,124.668029 C255.969012,149.055204 265.440402,153.35059 278.594639,160.683412 C291.748876,168.016234 304.889839,166.319948 315.998605,163.973488 C327.10737,161.627028 349.019307,151.640384 359.327249,134.915873 C364.508274,126.509724 368.838112,105.614882 364.259036,89.6560649 C359.72778,73.8639093 346.339307,62.9766348 341.570758,60.343481 C337.3346,58.0043097 330.390415,54.9069771 320.738203,51.0514832 C318.614477,67.2479677 310.13145,77.6272566 295.289122,82.18935 C280.446793,86.7514433 264.10439,84.0027584 246.261912,73.9432953 Z" id="Path-35" fill="#020200" transform="translate(303.800456, 108.517443) scale(-1, 1) translate(-303.800456, -108.517443) "></path>
                        <path d="M278.333464,37.4022189 C279.334164,62.8770705 282.060694,79.3650126 286.513054,86.8660451 C296.997075,104.52881 319.426503,108.402219 329.088228,108.402219 C337.977184,108.402219 358.335208,101.816374 366.76005,86.8660451 C371.137244,79.0984837 373.661715,62.6105416 374.333464,37.4022189 L278.333464,37.4022189 Z" id="Path-36" fill="#FEFDFB"></path>
                        <path d="M-8.52651283e-13,170.772287 C28.7429606,113.525575 57.1741971,72.975529 85.2937095,49.1221491 C113.413222,25.2687693 184.078069,8.89471956 297.28825,0 L624.590164,0 C614.510936,9.34950535 604.230576,16.3244023 593.749085,20.9246907 C583.267594,25.5249792 565.490873,30.8642335 540.418923,36.9424537 L312.295082,36.9424537 C211.206661,40.0644215 144.268037,50.7062554 111.479212,68.8679556 C78.6903863,87.0296558 52.6518616,120.997766 33.3636378,170.772287 L-8.52651283e-13,170.772287 Z" id="Path-29" fill="#140809"></path>
                        <path d="M25.7023193,165.278489 C76.9970736,238.821645 164.527995,275.593223 288.295082,275.593223 C412.06217,275.593223 499.393004,270.115425 550.287585,259.15983 C573.304094,240.053718 590.071621,224.556682 600.590164,212.668723 C611.108708,200.780763 625.701776,180.834348 644.369369,152.829478 C627.988888,120.648002 613.39582,97.370925 600.590164,82.9982462 C587.784509,68.6255673 565.917888,50.9813964 534.990303,30.0657335" id="Path-43" stroke="#100000" stroke-width="15"></path>
                    </g>
                    <g id="Group" transform="translate(2715.348400, 2170.188170) scale(-1, 1) rotate(3.000000) translate(-2715.348400, -2170.188170) translate(2392.848400, 2032.188170)">
                        <path d="M24.5878622,158.552096 L109.472576,240.583276 C194.553978,262.362515 262.127303,274.032497 312.192551,275.593223 C362.257798,277.153949 439.765206,270.006689 544.714774,254.151445 L643.929584,158.552096 C621.357521,119.694401 602.126362,92.0279536 586.236107,75.5527535 C570.345852,59.0775534 548.296398,43.9437839 520.087746,30.1514448 L167.29378,46.8340839 C127.11245,59.0523366 98.4102778,71.9030231 81.1872622,85.3861434 C63.9642466,98.8692637 45.0977799,123.257914 24.5878622,158.552096 Z" id="Path-33" fill="#FFFDFB"></path>
                        <path d="M213.337784,132.366809 C220.535568,167.887503 233.626693,202.379782 275.119629,227.485833 C316.612564,252.591883 374.204361,247.613872 412.328246,232.870973 C450.452131,218.128073 471.872244,179.686935 483.354715,146.436039 C491.009696,124.268775 487.830499,87.830812 473.817125,37.1221491 L225.833855,37.1221491 C212.704619,76.9381267 208.539262,108.686347 213.337784,132.366809 Z" id="Path-34" fill="#141113"></path>
                        <path d="M292.98391,86.5152843 C286.512509,104.073657 286.512509,120.981901 292.98391,137.240018 C302.69101,161.627193 312.1624,165.922579 325.316637,173.255401 C338.470874,180.588223 351.611837,178.891937 362.720603,176.545477 C373.829368,174.199017 395.741305,164.212373 406.049247,147.487862 C411.230271,139.081713 415.56011,118.186871 410.981034,102.228054 C406.449778,86.4358984 393.061305,75.5486239 388.292755,72.9154701 C384.056598,70.5762987 377.112413,67.4789661 367.460201,63.6234722 C365.336475,79.8199567 356.853448,90.1992456 342.011119,94.761339 C327.168791,99.3234324 310.826388,96.5747475 292.98391,86.5152843 Z" id="Path-35" fill="#020200" transform="translate(350.522454, 121.089432) scale(-1, 1) translate(-350.522454, -121.089432) "></path>
                        <path d="M333.258088,34.5237413 C334.258789,59.9985929 336.985319,76.486535 341.437679,83.9875675 C351.9217,101.650332 374.351127,105.523741 384.012853,105.523741 C392.901808,105.523741 413.259833,98.9378968 421.684675,83.9875675 C426.061868,76.2200061 428.586339,59.7320641 429.258088,34.5237413 L333.258088,34.5237413 Z" id="Path-36" fill="#FEFDFB"></path>
                        <path d="M-8.52651283e-13,170.772287 C28.7429606,113.525575 57.1741971,72.975529 85.2937095,49.1221491 C113.413222,25.2687693 184.078069,8.89471956 297.28825,0 L624.590164,0 C614.510936,9.34950535 604.230576,16.3244023 593.749085,20.9246907 C583.267594,25.5249792 565.490873,30.8642335 540.418923,36.9424537 L312.295082,36.9424537 C211.206661,40.0644215 144.268037,50.7062554 111.479212,68.8679556 C78.6903863,87.0296558 52.6518616,120.997766 33.3636378,170.772287 L-8.52651283e-13,170.772287 Z" id="Path-29" fill="#140809"></path>
                        <path d="M25.7023193,165.278489 C76.9970736,238.821645 164.527995,275.593223 288.295082,275.593223 C412.06217,275.593223 499.393004,270.115425 550.287585,259.15983 C573.304094,240.053718 590.071621,224.556682 600.590164,212.668723 C611.108708,200.780763 625.701776,180.834348 644.369369,152.829478 C627.988888,120.648002 613.39582,97.370925 600.590164,82.9982462 C587.784509,68.6255673 565.917888,50.9813964 534.990303,30.0657335" id="Path-43" stroke="#100000" stroke-width="15"></path>
                    </g>
                    <path d="M2200.46228,2821.13477 C2209.10733,2869.51911 2217.13116,2905.12978 2224.53377,2927.9668 C2231.93638,2950.80382 2243.42858,2975.40001 2259.01037,3001.75536 C2292.89129,3059.88504 2316.88156,3088.94988 2330.98117,3088.94988 C2345.08079,3088.94988 2361.46886,3059.88504 2380.14539,3001.75536 C2390.55832,3050.29106 2401.30025,3089.03264 2412.37117,3117.98012 C2423.4421,3146.92761 2439.16607,3177.38723 2459.54311,3209.359 C2483.1036,3145.57936 2504.86963,3100.66942 2524.8412,3074.62917 C2554.79856,3035.56879 2547.78405,3040.54906 2624.0027,3001.75536 C2674.81514,2975.8929 2754.42213,2963.61581 2862.82366,2964.92408 L3226.24018,3074.62917 L3226.24018,3180.75645 C2913.21088,3127.50768 2732.17555,3106.58224 2683.13418,3117.98012 C2609.57212,3135.07696 2595.3196,3212.35986 2595.3196,3258.66542 C2595.3196,3304.97098 2620.80887,3381.03087 2624.0027,3410.262 C2626.13192,3429.74942 2657.27988,3483.56107 2717.44657,3571.69696 C2816.42002,3717.39479 2908.23673,3792.53697 2992.8967,3797.1235 C3005.49708,3797.80613 3091.40683,3808.6647 3113.64607,3786.55467 C3127.05345,3773.22519 3132.52526,3757.49902 3130.06151,3739.37617 L3226.24018,3739.37617 L3226.24018,4120.28054 C3141.8806,4118.59635 3080.06097,4112.7267 3040.78127,4102.67159 C3001.50158,4092.61648 2966.37685,4073.66958 2935.40708,4045.83089 C2871.3578,3980.70119 2828.33729,3931.10508 2806.34554,3897.04257 C2784.35379,3862.98005 2764.56338,3815.28978 2746.97431,3753.97174 L2746.97431,3857.34305 L2481.29663,3600.39544 C2446.61563,3553.5739 2420.68518,3501.99899 2403.50528,3445.67069 C2386.32538,3389.3424 2362.15067,3293.03144 2330.98117,3156.73783 L2380.14539,3473.95369 C2335.42537,3415.32255 2303.60028,3369.913 2284.67012,3337.72505 C2265.73997,3305.53709 2245.69451,3262.74841 2224.53377,3209.359 C2215.53079,3148.69698 2207.50696,3097.0349 2200.46228,3054.37277 C2193.41761,3011.71063 2193.41761,2933.96463 2200.46228,2821.13477 Z" id="Path-30" fill="#151B18" transform="translate(2710.709478, 3470.707652) scale(-1, 1) translate(-2710.709478, -3470.707652) "></path>
                    <path d="M1099.92316,2821.13477 C1109.32231,2869.51911 1118.04605,2905.12978 1126.09438,2927.9668 C1134.14272,2950.80382 1146.63737,2975.40001 1163.57835,3001.75536 C1200.41467,3059.88504 1226.49758,3088.94988 1241.8271,3088.94988 C1257.15661,3088.94988 1274.9742,3059.88504 1295.27987,3001.75536 C1306.60111,3050.29106 1318.28005,3089.03264 1330.31668,3117.98012 C1342.35331,3146.92761 1359.44888,3177.38723 1381.60338,3209.359 C1407.21903,3145.57936 1430.88369,3100.66942 1452.59737,3074.62917 C1485.16788,3035.56879 1477.5415,3040.54906 1560.40864,3001.75536 C1615.65341,2975.8929 1702.20444,2963.61581 1820.06175,2964.92408 L2215.17878,3074.62917 L2215.17878,3180.75645 C1899.7145,3153.34615 1715.32275,3145.33995 1662.00354,3156.73783 C1582.02473,3173.83467 1560.40864,3204.97618 1560.40864,3251.28174 C1560.40864,3297.5873 1556.93622,3376.88394 1560.40864,3406.11507 C1562.46159,3423.39688 1573.24582,3470.60908 1624.92362,3544.05353 C1629.32058,3550.30248 1641.68056,3559.51696 1662.00354,3571.69696 C1687.02337,3621.57812 1714.06198,3654.23266 1743.11938,3669.66059 C1763.23082,3680.3387 1831.1103,3793.64647 1969.17748,3800.52626 C1977.71307,3800.95158 2020.50441,3800.95158 2097.55152,3800.52626 L2097.55152,3739.37617 L2215.17878,3739.37617 L2215.17878,4120.28054 C2123.46059,4118.59635 2056.24848,4112.7267 2013.54245,4102.67159 C1970.83643,4092.61648 1932.6478,4073.66958 1898.97656,4045.83089 C1829.34032,3980.70119 1782.56716,3931.10508 1758.65709,3897.04257 C1734.74702,3862.98005 1713.23031,3815.28978 1694.10696,3753.97174 L1694.10696,3857.34305 L1405.25445,3600.39544 C1367.54825,3553.5739 1339.35591,3501.99899 1320.67742,3445.67069 C1301.99893,3389.3424 1275.71549,3293.03144 1241.8271,3156.73783 L1295.27987,3473.95369 C1246.65896,3415.32255 1212.0578,3369.913 1191.47638,3337.72505 C1170.89496,3305.53709 1149.10096,3262.74841 1126.09438,3209.359 C1116.30608,3148.69698 1107.58234,3097.0349 1099.92316,3054.37277 C1092.26398,3011.71063 1092.26398,2933.96463 1099.92316,2821.13477 Z" id="Path-30" fill="#151B18"></path>
                    <path d="M2234.27298,2945.48579 C2247.92809,2950.9383 2267.40385,2966.59484 2292.70028,2992.45543 L2385.55331,2998.18855 L2385.62629,2973.61781 C2344.24616,2971.40752 2315.41544,2969.26708 2299.13412,2967.19651 C2277.60949,2964.45911 2269.17608,2940.31597 2253.67106,2928.86356 C2245.23977,2922.636 2228.29916,2925.83506 2220.76363,2925.23996 C2183.64724,2922.30881 2166.95633,2922.30881 2170.69089,2925.23996 C2199.42384,2933.28467 2220.61787,2940.03328 2234.27298,2945.48579 Z" id="Path-38" fill="#C97B56" transform="translate(2277.902532, 2960.615072) scale(-1, 1) translate(-2277.902532, -2960.615072) "></path>
                    <path d="M2064.27298,2945.48579 C2077.92809,2950.9383 2097.40385,2966.59484 2122.70028,2992.45543 L2215.55331,2998.18855 L2215.62629,2973.61781 C2174.24616,2971.40752 2145.41544,2969.26708 2129.13412,2967.19651 C2107.60949,2964.45911 2099.17608,2940.31597 2083.67106,2928.86356 C2075.23977,2922.636 2058.29916,2925.83506 2050.76363,2925.23996 C2013.64724,2922.30881 1996.95633,2922.30881 2000.69089,2925.23996 C2029.42384,2933.28467 2050.61787,2940.03328 2064.27298,2945.48579 Z" id="Path-38" fill="#C97B56"></path>
                    <path d="M2242.225,2790.4269 C2238.08386,2795.28097 2231.95372,2810.27956 2223.83458,2835.42269 C2219.9053,2869.36747 2229.6257,2891.91328 2252.99578,2903.06009 C2288.05089,2919.78032 2364.2309,2872.22281 2390.35717,2921.41695 C2416.48343,2970.61108 2411.26076,2983.95761 2450.02461,2987.87531 C2475.86718,2990.4871 2492.06783,2990.4871 2498.62656,2987.87531 L2498.62656,3017.52332 L2450.02461,3017.52332 C2419.25391,3002.99441 2399.36476,2985.58699 2390.35717,2965.30105 C2380.5973,2943.32093 2383.80366,2926.08853 2334.4804,2921.41695 C2315.52137,2919.62127 2280.07943,2930.74997 2246.06464,2927.79678 C2207.43638,2924.44304 2190.89334,2864.04889 2198.07302,2829.8552 C2207.45711,2785.16292 2245.74419,2786.30184 2242.225,2790.4269 Z" id="Path-37" fill="#77240C" transform="translate(2347.532083, 2903.042830) scale(-1, 1) translate(-2347.532083, -2903.042830) "></path>
                    <path d="M1586.16994,3928.55591 C1657.13862,3987.8478 1707.35918,4029.479 1736.83162,4053.44949 C1760.93077,4073.04978 1815.86304,4105.07021 1837.83256,4120.28054 C1857.24142,4133.71802 1917.96539,4163.18093 1935.11408,4181.51304 C1938.09499,4184.69966 2057.5712,4216.78234 2122.8983,4245.99094 C2142.43674,4254.72684 2186.33405,4249.98879 2254.59022,4231.77681 C2314.28319,4205.50031 2384.84761,4172.4651 2466.28348,4132.67118 C2547.71935,4092.87725 2650.8742,4012.65961 2775.74803,3892.01827 L2701.46026,3877.84034 L2396.67781,4110.79875 L2086.67922,4110.79875 C1966.72467,4086.21998 1883.77578,4059.60448 1837.83256,4030.95224 C1791.88934,4002.30001 1739.72524,3944.65305 1681.34025,3858.01137 L1501.99705,3858.01137 L1586.16994,3928.55591 Z" id="Path-69" fill="#FBB58F"></path>
                    <path d="M1961.59734,2807.23346 C1957.8014,2811.68555 1952.18223,2825.44206 1944.73986,2848.50301 C1941.13811,2879.63672 1950.04826,2900.31543 1971.47033,2910.53915 C2003.60342,2925.87473 2073.43345,2882.2556 2097.38196,2927.37582 C2121.33047,2972.49603 2116.54314,2984.73729 2152.07583,2988.33055 C2175.76429,2990.72606 2190.61453,2990.72606 2196.62656,2988.33055 L2196.43761,3017.52332 L2152.07583,3015.52332 C2123.87002,3002.19759 2105.63873,2986.23174 2097.38196,2967.62574 C2088.43563,2947.46586 2091.37472,2931.66053 2046.1628,2927.37582 C2028.7841,2925.72884 1996.29643,2935.93594 1965.11694,2933.22731 C1929.70853,2930.15131 1914.54443,2874.75858 1921.12566,2843.39658 C1929.72754,2802.40541 1964.8232,2803.45001 1961.59734,2807.23346 Z" id="Path-37" fill="#77240C"></path>
                    <path d="M2711.1853,1442.30336 L2647.89743,1454.55468 L2311.38573,1497.55995 L2141.19791,1502.57512 L2141.19791,1483.03776 L2311.38573,1483.03776 L2647.89743,1442.30336 L2711.1853,1442.30336 Z M1634.48579,1442.30336 L1970.99748,1483.03776 L2141.1853,1483.03776 L2141.1853,1502.57512 L1970.99748,1497.55995 L1634.48579,1454.55468 L1571.19791,1442.30336 L1634.48579,1442.30336 Z" id="Combined-Shape" fill="#D8825B"></path>
                    <path d="M2436.31952,2386.80959 L2605.75986,2358.42408 L2637.62656,2358.42408 L2605.75986,2366.96134 L2436.31952,2396.92929 L2351.62656,2400.38308 L2351.62656,2400.42408 L2351.12656,2400.40408 L2350.62656,2400.42408 L2350.62656,2400.38308 L2265.93361,2396.92929 L2096.49327,2366.96134 L2064.62656,2358.42408 L2096.49327,2358.42408 L2265.93361,2386.80959 L2436.31952,2386.80959 Z" id="Combined-Shape" fill="#D8825B" transform="translate(2351.126560, 2379.424082) rotate(90.000000) translate(-2351.126560, -2379.424082) "></path>
                    <g id="Group-4" transform="translate(3420.562173, 2329.084288) scale(-1, 1) translate(-3420.562173, -2329.084288) translate(3188.062173, 1851.584288)">
                        <path d="M188.772673,0 C142.371068,1.41191397 107.452573,12.14458 84.0171883,32.1979981 C48.8641108,62.2781252 24.5658282,130.861663 16.8552761,182.41487 C11.714908,216.783674 11.714908,273.924267 16.8552761,353.836649 C26.6754147,438.129311 54.5072571,522.35628 100.350803,606.517557 C169.116123,732.759472 245.474386,824.462221 321.031452,883.057869 C371.402829,922.121634 419.159221,936.191382 464.300627,925.267113 C429.522759,801.891598 406.37556,708.450199 394.85903,644.942914 C366.398307,487.997799 358.153041,321.339794 358.153041,214.125998 C358.153041,142.650134 342.24099,171.60481 310.416889,300.990025 L188.772673,0 Z" id="Path-55" fill="#F7AA85"></path>
                        <path d="M212.920093,98.2750602 C184.258047,83.5568151 162.099022,83.5568151 146.443018,98.2750602 C122.959012,120.352428 106.726549,170.689449 101.575516,208.527025 C98.1414945,233.752075 98.1414945,275.690524 101.575516,334.342372 C108.135858,396.209135 126.728915,458.027683 157.354686,519.798015 C203.293344,612.453513 254.304465,679.758924 304.780348,722.765314 C338.430936,751.43624 361.701845,751.43624 374.593076,722.765314 C358.750437,659.141947 348.860937,613.748053 344.924577,586.583629 C331.330247,492.770535 353.167163,433.440184 344.924577,366.977367 C339.29578,321.590436 286.955404,332.798261 280.870638,288.183071 C276.067323,252.963835 253.417141,189.661165 212.920093,98.2750602 Z" id="Path-55" fill="#DF7F5B"></path>
                        <path d="M175.513134,2.21194294 C127.752963,-4.07811845 92.4087403,3.04701894 69.4804671,23.5873551 C35.0880573,54.3978593 11.3155584,124.646677 3.77185281,177.45165 C-1.25728427,212.654965 -1.25728427,271.182992 3.77185281,353.03573 C13.3794962,439.375107 40.6090931,525.647196 85.4606436,611.851997 C152.737969,741.159198 227.443937,835.088586 301.366045,895.106998 C350.64745,935.119273 376.04055,955.085041 377.545347,955.004302" id="Path-55" stroke="#0A050A" stroke-width="50"></path>
                    </g>
                    <g id="Group-3" transform="translate(2058.601054, 3669.937368)" fill="#C05C4D">
                        <path d="M381.829192,5.68434189e-14 L191,5.68434189e-14 C219.167007,21.9371726 244.073753,35.8022586 265.72024,41.595258 C287.366726,47.3882573 326.069711,50.1587068 381.829192,49.9066063 L381.829192,5.68434189e-14 Z" id="Path-41" transform="translate(286.414596, 24.961188) scale(-1, 1) translate(-286.414596, -24.961188) "></path>
                        <path d="M190.829192,5.68434189e-14 L-4.40536496e-13,5.68434189e-14 C28.1670068,21.9371726 53.0737534,35.8022586 74.7202399,41.595258 C96.3667265,47.3882573 135.069711,50.1587068 190.829192,49.9066063 L190.829192,5.68434189e-14 Z" id="Path-41"></path>
                    </g>
                    <path d="M1071.7521,1257.90398 C1071.7521,1229.59214 1050.52012,971.343317 1497.65241,971.343317 C1944.7847,971.343317 1806.5939,999.377983 2128.65179,986.8243 C2343.35705,978.455178 2547.9189,957.122417 2742.33733,922.826015 C2896.21558,906.225376 3008.30921,941.224659 3078.61821,1027.82386 C3148.92722,1114.42307 3181.81476,1289.53018 3177.28085,1553.14522 C3234.46735,1680.78128 3274.36202,1806.07483 3296.96484,1929.02586 C3330.86907,2113.45241 3317.17896,2261.30925 3317.17896,2314.13941 C3317.17896,2366.96956 3306.4384,2943.83194 3177.28085,3232.1313 C3048.12329,3520.43066 2943.41013,3623.82139 2704.38964,3861.35572 C2545.04264,4019.71193 2416.00859,4105.86685 2317.28747,4119.82047 L2161.61907,4099.93385 C2109.77091,4099.93385 2057.02518,4099.93385 2003.38187,4099.93385 C1922.91691,4099.93385 1777.82216,3973.1196 1579.78583,3796.05522 C1381.7495,3618.99084 1347.70052,3551.63548 1240.82111,3374.41042 C1133.94171,3197.18535 1129.99446,3047.42819 1094.17878,2923.0416 C1083.89311,2887.31986 1080.50359,2856.44245 1071.7521,2805.52332 C1027.57396,2548.47989 997.377798,2123.15161 999.387247,1954.69181 C999.923994,1909.69419 1009.85692,1827.4189 1029.18603,1707.86594 C1057.56341,1426.76586 1071.7521,1276.77854 1071.7521,1257.90398 Z" id="Path-42" stroke="#110007" stroke-width="45"></path>
                    <path d="M2394.44486,1875.2084 C2435.59551,1851.95592 2467.63169,1836.36517 2490.5534,1828.43616 C2513.47511,1820.50715 2550.11935,1812.34018 2600.48613,1803.93524 C2635.12282,1800.68702 2667.41959,1800.68702 2697.37642,1803.93524 C2727.33325,1807.18346 2770.35664,1815.35044 2826.44659,1828.43616 C2877.54621,1842.88117 2916.26352,1851.70028 2942.5985,1854.89347 C2968.93348,1858.08666 3002.94932,1858.08666 3044.64601,1854.89347 L3027.03805,1754.88259 L2925.75957,1740.52776 C2827.8455,1709.5201 2758.62717,1690.23 2718.10457,1682.65744 C2677.58197,1675.08488 2624.04444,1675.08488 2557.49199,1682.65744 C2507.1296,1715.77403 2471.1259,1745.2697 2449.48087,1771.14445 C2427.83585,1797.0192 2409.49051,1831.70718 2394.44486,1875.2084 Z" id="Path-32" fill="#171A1C" transform="translate(2719.545434, 1776.093209) scale(-1, 1) translate(-2719.545434, -1776.093209) "></path>
                    <path d="M1248.08231,1973.46111 C1310.60659,1915.29934 1359.51831,1878.90304 1394.81747,1864.27222 C1447.7662,1842.32599 1514.5611,1839.51367 1559.49634,1844.386 C1604.43159,1849.25834 1642.99805,1847.66362 1730.76683,1864.27222 C1789.27935,1875.34462 1843.82873,1889.84157 1894.41499,1907.76309 L1894.41499,1822.48351 C1866.37177,1802.92414 1831.31999,1782.32151 1789.25963,1760.67565 C1726.16911,1728.20684 1663.75483,1714.60374 1592.67706,1714.60374 C1545.29188,1714.60374 1486.86565,1720.92753 1417.39839,1733.57512 C1378.40199,1760.71747 1348.08129,1787.22602 1326.43626,1813.10076 C1304.79124,1838.97551 1278.67326,1892.42896 1248.08231,1973.46111 Z" id="Path-32" fill="#211816"></path>
                    <path d="M1294.27987,3468.95369 C1294.27987,3462.82333 1284.15104,3424.09992 1274.88288,3369.22618 C1268.94537,3334.07215 1257.59145,3261.57604 1240.82111,3151.73783 C1291.44017,3343.40718 1335.60386,3465.50923 1373.31217,3518.04399 C1409.93831,3569.07106 1536.20459,3700.42473 1618.56047,3782.81008 C1648.44577,3812.70608 1673.2946,3833.85899 1693.10696,3846.26882 L1693.10696,3748.97174 L1828.06681,3967.10178 L1893.67922,4030.95224 C1842.55274,3994.39363 1797.0739,3959.14291 1757.24269,3925.20009 C1717.41148,3891.25727 1659.81965,3840.92604 1584.46719,3774.20639 C1503.97242,3699.77431 1449.22714,3647.74176 1420.23135,3618.10872 C1336.29887,3532.33164 1294.27987,3476.87186 1294.27987,3468.95369 Z" id="Path-31" fill="#110007"></path>
                    <path d="M2537.71044,3475.42688 C2537.71044,3469.67453 2528.13794,3433.3389 2519.37883,3381.8488 C2513.76744,3348.86245 2500.85908,3277.70092 2480.65375,3168.3642 C2532.84866,3354.48616 2576.76472,3472.19481 2612.40191,3521.49015 C2647.01637,3569.37078 2766.3475,3692.62487 2844.17999,3769.93015 C2872.42385,3797.98269 2895.90786,3817.83127 2914.63203,3829.47588 L2914.63203,3738.17836 L3042.17924,3942.858 L3104.1879,4002.77129 C3055.76348,3977.16394 3012.72953,3948.43535 2975.08604,3916.58552 C2937.44256,3884.73569 2883.06697,3833.15951 2811.95928,3761.85698 C2735.88567,3692.01456 2684.14727,3643.19046 2656.74406,3615.38466 C2577.42156,3534.89679 2537.71044,3482.8568 2537.71044,3475.42688 Z" id="Path-31" fill="#110007" transform="translate(2792.420825, 3585.567745) scale(-1, 1) rotate(2.000000) translate(-2792.420825, -3585.567745) "></path>
                    <path d="M1624.20934,3245.07186 C1665.26593,3236.16477 1691.16311,3236.16477 1701.90088,3245.07186 C1718.00753,3258.4325 1729.05462,3335.64967 1844.41524,3430.98031 C1921.32231,3494.53407 1993.65722,3536.65315 2061.41995,3557.33756 C2118.37756,3570.18186 2182.97325,3576.60401 2255.20702,3576.60401 C2327.44079,3576.60401 2419.56791,3540.25671 2531.58839,3467.56211 L2726.26572,3225.08233 L2783.72781,3213.93726 C2771.32621,3186.12364 2752.17219,3172.21682 2726.26572,3172.21682 C2687.40603,3172.21682 2651.87272,3191.86773 2576.99208,3213.93726 C2502.11144,3236.00679 2451.90744,3250.99571 2398.24729,3258.4325 C2287.41172,3273.79326 2199.97819,3275.83453 2163.32168,3275.83453 C2129.13139,3275.83453 2041.56516,3276.28887 1949.29818,3265.85298 C1912.93286,3261.73987 1856.34811,3251.85569 1779.54392,3236.20045 C1742.95944,3209.53797 1710.27647,3197.89021 1681.495,3201.25715 C1652.71352,3204.6241 1633.6183,3219.229 1624.20934,3245.07186 Z" id="Path-45" stroke="#150400" stroke-width="15" fill="#F9F5F2"></path>
                    <path d="M1752.56149,3322.35511 C1773.91084,3348.86307 1789.78139,3367.44416 1800.17312,3378.0984 C1833.59067,3412.36008 1864.42469,3435.78633 1887.85178,3452.56211 C1908.0626,3467.03477 1931.80176,3487.27085 1966.43425,3505.42897 C1982.59178,3513.90051 2011.51557,3526.88865 2053.20562,3544.39341 C2111.56742,3557.97485 2176.8652,3564.76557 2249.09898,3564.76557 C2309.17681,3564.76557 2386.41483,3541.16034 2473.14252,3489.416 C2484.84131,3482.43615 2502.19611,3471.42147 2525.20692,3456.37197 C2558.52703,3414.43307 2579.76512,3387.47006 2588.92117,3375.48291 C2598.07722,3363.49576 2615.55768,3341.7935 2641.36254,3310.37612 C2391.6476,3365.69086 2230.40767,3393.34823 2157.64276,3393.34823 C2084.87785,3393.34823 1949.85076,3369.68386 1752.56149,3322.35511 Z" id="Path-45" fill="#5C0100"></path>
                    <path d="M999.692489,2271.88564 C999.692489,2256.68104 1000.18038,2250.01761 1008.03012,2045.75172 C1008.58718,2031.25578 1017.99919,1925.95561 1017.99919,1851.49605 C1017.99919,1818.16626 1017.99919,1727.48396 1017.99919,1579.44916 C1015.04889,1513.67503 1015.04889,1457.50074 1017.99919,1410.92628 C1019.55027,1386.44048 1013.98646,1342.69705 1030.68341,1281.10933 C1037.35901,1256.48595 1051.40641,1222.22996 1072.82562,1178.34136 C1103.86952,1150.48532 1127.46192,1128.62667 1143.60283,1112.76542 C1189.4192,1067.74285 1283.30333,1013.42697 1367.85356,1004.27297 C1563.23459,983.119647 1868.07109,1005.29676 1994.42484,1015.26707 C2030.7652,1018.13462 2076.44173,1029.57117 2146.96575,1026.92317 C2262.9376,1022.56872 2419.52951,995.868698 2452.17781,991.778364 C2484.44239,987.736106 2611.61754,979.699381 2675.50067,972.06017 C2719.47454,966.801729 2750.92977,970.488197 2793.92023,962.976525 C2824.41775,957.64773 2843.0242,961.771075 2883.28929,962.976525 C2905.45674,963.640171 2926.67732,970.373886 2953.67781,972.06017 C2979.51601,973.673863 3004.96673,975.616351 3058.38328,998.628452 C3115.26371,1023.13281 3124.8801,1066.0315 3145.42256,1093.15674 C3165.96501,1120.28198 3193.85768,1208.04176 3207.54686,1344.60039 C3209.079,1359.8845 3210.10708,1431.05356 3218.0173,1515.69537 C3220.37423,1540.91532 3216.96873,1566.46149 3223.68101,1592.67856 C3231.72849,1624.11068 3255.85458,1655.95488 3260.69047,1696.37337 C3261.86001,1706.1484 3274.00414,1751.60517 3285.95555,1795.20949 C3296.31961,1833.02245 3306.03131,1868.24684 3314.56908,1892.33464 C3325.63483,1923.55471 3339.08477,1999.85523 3354.91889,2121.23619 C3402.09329,2018.33142 3434.03477,1923.92295 3450.74335,1838.01077 C3475.80622,1709.1425 3482.47468,1595.85519 3482.47468,1395.2377 C3482.47468,1333.99389 3476.15863,1261.65263 3466.98001,1191.58674 C3455.11498,1101.01376 3430.66541,1011.97484 3408.20962,922.581557 C3391.13285,854.601423 3363.92147,778.890661 3333.57017,716.794008 C3315.41393,679.647599 3296.32811,602.326821 3260.69047,552.943226 C3236.8963,519.971296 3191.7737,489.909862 3173.85007,470.78037 C3137.2343,431.70117 3080.12238,405.569931 3002.51432,392.386652 C2888.28303,181.785772 2792.01313,76.485332 2713.70459,76.485332 C2650.75994,76.485332 2624.37835,37.6191204 2542.72627,12.6515204 C2472.0051,-8.97362459 2368.08798,-1.26243367 2187.59017,25.554111 C2100.94189,38.4274388 2004.73223,68.9851535 1919.40836,94.8852375 C1811.39838,127.671695 1704.05291,159.667042 1587.48573,212.635023 C1542.90218,232.89373 1469.69146,266.283186 1367.85356,312.80339 C1293.08232,342.976352 1235.4424,374.263504 1194.9338,406.664846 C1154.42521,439.066188 1117.00654,497.957484 1082.67781,583.338733 C947.547653,686.682894 864.993311,769.066535 835.014787,830.489656 C817.000479,867.399248 798.674968,906.384203 799.666019,972.06017 C800.104824,1001.13933 808.22592,1055.20504 824.029307,1134.25731 C778.142203,1291.64998 772.163074,1479.022 806.091918,1696.37337 C856.985185,2022.40042 999.692489,2305.83648 999.692489,2271.88564 Z" id="Path-40" fill="#2A292E"></path>
                    <g id="Group-2" transform="translate(781.575307, 0.000000)" filter="url(#filter-1)">
                        <g transform="translate(0.051253, 0.424082)">
                            <path d="M240.721218,2320.70803 C240.721218,2301.7814 238.532243,2166.60549 255.504873,1893.86967 C258.49977,1845.7442 258.49977,1778.15767 255.504873,1691.11007 C248.572513,1496.92578 253.004174,1362.02915 268.799855,1286.42016 C284.595536,1210.81117 319.896418,1155.52054 374.702499,1120.54828 C417.351463,1060.29091 505.224255,1022.70542 638.320874,1007.79181 C771.417494,992.878205 1012.64609,1003.92058 1362.00667,1040.91895 C1647.87375,1004.49982 1845.38212,983.993628 1954.53177,979.40036 C2063.68143,974.807092 2156.90234,977.604249 2234.1945,987.791831 C2287.08617,1003.56176 2330.46093,1047.81391 2364.31878,1120.54828 C2398.17663,1193.28264 2417.67417,1345.37382 2422.8114,1576.8218 C2456.91421,1664.40838 2483.44879,1746.5549 2502.41512,1823.26137 C2521.38146,1899.96783 2542.78327,2011.69272 2566.62055,2158.43604 C2628.69215,2025.84151 2668.26455,1914.11662 2685.33777,1823.26137 C2710.9476,1686.97848 2718.05125,1569.2961 2718.05125,1357.13581 C2718.05125,1144.97552 2654.36207,879.908525 2551.0168,661.081527 C2482.11996,515.196862 2376.51252,425.497193 2234.1945,391.982523 C2119.33498,182.488545 2021.89647,77.7415568 1941.87897,77.7415568 C1821.85273,77.7415568 1839.60516,-43.497283 1442.22416,17.6049954 C1177.3035,58.3398476 909.335734,145.198133 638.320874,278.179852 C525.019653,319.782701 447.672723,357.716925 406.280084,391.982523 C364.887446,426.24812 324.662565,485.642033 285.605444,570.164261 C143.20339,683.923744 56.6859822,773.282078 26.0532218,838.239263 C-4.57953864,903.196448 -4.57953864,997.299452 26.0532218,1120.54828 C-8.61606967,1271.06583 -8.61606967,1461.25309 26.0532218,1691.11007 C78.057159,2035.89553 240.721218,2356.61228 240.721218,2320.70803 Z" id="Path-40" stroke="#979797" stroke-width="45"></path>
                            <path d="M288.051253,585.823332 C363.169133,568.616069 424.358312,544.571808 471.618791,513.690548 C499.066769,495.755306 540.779116,466.696381 574.220134,438.864891 C590.312399,425.472006 612.256105,400.813548 640.051253,364.889517 C578.878223,411.047186 522.734069,447.733277 471.618791,474.947789 C420.503512,502.162301 364.359358,525.260128 303.186328,544.241269 L288.051253,585.823332 Z" id="Path-46" fill="#979797"></path>
                            <path d="M48.021432,1122.84995 C48.021432,1122.84995 62.1389234,1065.57023 128.174836,994.063406 C154.651939,965.392741 212.610745,916.629738 302.051253,847.774395 C248.117996,863.152206 207.216068,880.207938 179.345469,898.94159 C101.792843,951.06978 26.7212902,1035.16558 30.1653744,1069.09748 C38.1163779,1147.43258 48.021432,1122.84995 48.021432,1122.84995 Z" id="Path-47" fill="#979797"></path>
                            <path d="M886.909385,992.266974 C870.090352,958.547165 845.469899,936.5567 813.048025,926.295581 C753.122762,907.329981 639.926599,894.337951 602.407933,903.701274 C534.440704,920.663473 508.037728,928.194908 523.199007,926.295581 L571.472801,891.046858 C651.518967,874.745294 747.522404,878.963432 859.483111,903.701274 C971.443818,928.439115 1026.62186,957.961015 1025.01724,992.266974 L886.909385,992.266974 Z" id="Path-48" fill="#979797"></path>
                            <path d="M1355.2904,1027.69096 C1322.69544,970.617674 1296.95856,930.788382 1278.07975,908.203084 C1214.97032,832.70333 1140.20274,801.785119 1098.51148,788.854431 C1075.12552,781.601197 980.638783,768.13106 815.051253,748.444019 C914.690865,730.487943 1009.17761,730.487943 1098.51148,748.444019 C1232.51228,775.378133 1236.52324,778.699901 1322.36667,855.534843 C1379.59562,906.758138 1412.82381,961.326196 1422.05125,1019.23902 L1355.2904,1027.69096 Z" id="Path-49" fill="#979797"></path>
                            <path d="M1505.95733,1021.16549 L1561.24144,1021.16549 C1584.1501,946.367192 1596.82677,892.160845 1599.27146,858.546449 C1608.19642,735.828456 1600.10163,649.746426 1587.63186,612.018985 C1574.07071,570.989541 1547.67049,526.633453 1522.4618,497.054214 C1486.84012,455.25664 1436.74376,426.799745 1400.37239,419.049608 C1358.96531,410.226446 1263.85827,410.226446 1115.05125,419.049608 C1239.92569,411.931177 1331.84134,423.048097 1390.7982,452.400369 C1479.2335,496.428777 1500.59118,542.799911 1534.87027,628.060763 C1569.14936,713.321616 1557.72591,779.443476 1549.84442,847.988922 C1544.5901,893.685887 1529.96107,951.411409 1505.95733,1021.16549 Z" id="Path-50" fill="#979797"></path>
                            <path d="M1532.05125,1021.16549 L1629.8531,997.393543 C1693.97374,937.466994 1737.27571,884.020202 1759.75898,837.053166 C1775.42407,804.329176 1799.18029,755.560649 1808.92957,677.476212 C1811.75848,654.818823 1811.75848,614.324288 1808.92957,555.992606 C1778.61149,689.881945 1747.53507,783.568798 1715.70032,837.053166 C1683.86557,890.537534 1622.64921,951.908309 1532.05125,1021.16549 Z" id="Path-51" fill="#979797"></path>
                            <path d="M1875.05125,973.874504 C1997.24674,872.842136 2072.63635,778.256542 2101.22009,690.117722 C2129.80384,601.978903 2134.55603,449.444885 2115.47666,232.51567 L2178.21128,306.49358 C2181.44811,494.024868 2175.33008,626.655904 2159.85717,704.386689 C2144.38427,782.117474 2071.3423,876.523885 1940.73128,987.605923 L1875.05125,973.874504 Z" id="Path-52" fill="#979797"></path>
                            <polygon id="Path-53" fill="#979797" points="2173.05125 957.558612 2493.05125 881.333962 2247.26116 986.673713"></polygon>
                            <path d="M2085.05595,954.046356 C2139.93273,906.629961 2182.97667,859.750664 2214.18778,813.408468 C2245.39888,767.066271 2285.02004,691.204559 2333.05125,585.823332 C2267.29962,691.626437 2215.21879,767.488149 2176.80876,813.408468 C2138.39873,859.328786 2087.81289,906.208083 2025.05125,954.046356 L2085.05595,954.046356 Z" id="Path-54" fill="#979797"></path>
                        </g>
                    </g>
                    <path d="M1188.4327,1003.26859 C1279.1588,986.311568 1347.40454,976.125343 1393.16994,972.709917 C1438.93533,969.29449 1507.18108,969.29449 1597.90718,972.709917 C1508.26282,949.13034 1440.01708,939.088629 1393.16994,942.584785 C1346.3228,946.080941 1278.07705,966.308876 1188.4327,1003.26859 Z" id="Path-44" fill="#6A676F"></path>
                    <path d="M1486.4327,904.268591 C1577.1588,887.311568 1645.40454,877.125343 1691.16994,873.709917 C1736.93533,870.29449 1805.18108,870.29449 1895.90718,873.709917 C1806.26282,850.13034 1738.01708,840.088629 1691.16994,843.584785 C1644.3228,847.080941 1576.07705,867.308876 1486.4327,904.268591 Z" id="Path-44" fill="#6A676F" transform="translate(1691.169939, 873.588107) rotate(20.000000) translate(-1691.169939, -873.588107) "></path>
                    <path d="M2721.76614,274.255516 C2776.27166,264.068244 2817.27166,257.948665 2844.76614,255.89678 C2872.26062,253.844894 2913.26062,253.844894 2967.76614,255.89678 C2913.9105,241.730876 2872.9105,235.698117 2844.76614,237.798503 C2816.62178,239.898888 2775.62178,252.051226 2721.76614,274.255516 Z" id="Path-44" fill="#6A676F" transform="translate(2844.766139, 255.823600) rotate(65.000000) translate(-2844.766139, -255.823600) "></path>
                    <path d="M2717.23383,352.87704 C2779.58238,413.961434 2817.18428,463.047028 2830.03951,500.133822 C2849.32236,555.764012 2851.25282,617.086015 2841.84118,678.316582 C2832.42955,739.547149 2835.01783,765.310418 2773.63667,867.081442 C2732.71589,934.928791 2686.08939,980.487019 2633.75714,1003.75612 C2737.69976,947.750897 2803.12722,893.00478 2830.03951,839.517771 C2850.16285,799.523528 2870.78483,749.536895 2876.1405,694.423688 C2881.52857,638.976959 2879.46638,607.337186 2876.1405,566.640462 C2869.50874,485.491811 2834.8532,437.335173 2806.37533,411.86652 C2787.39008,394.887418 2757.67625,375.224258 2717.23383,352.87704 Z" id="Path-58" fill="#070508"></path>
                    <path d="M1831.67986,545.301518 C1951.62431,601.413096 2037.49045,648.378749 2089.27826,686.198477 C2141.06608,724.018204 2197.94732,781.298441 2259.92198,858.039186 C2304.931,728.11027 2289.40532,635.373033 2213.34494,579.827474 C2137.28455,524.281916 2010.06286,512.773264 1831.67986,545.301518 Z" id="Path-60" fill="#302030" opacity="0.721232823"></path>
                    <path d="M2168.74595,839.471777 C2124.61212,787.063977 2087.11666,748.986345 2056.25958,725.238881 C2025.4025,701.491417 1989.76996,683.29008 1949.36195,670.634869 C1989.50841,650.677459 2025.14095,640.698754 2056.25958,640.698754 C2087.37821,640.698754 2134.27718,650.677459 2196.9565,670.634869 C2158.62865,624.362375 2128.59807,590.279867 2106.86476,568.387346 C2085.13144,546.494825 2059.08436,524.088878 2028.72351,501.169504 C2084.00815,497.558543 2124.02318,497.558543 2148.76861,501.169504 C2173.51403,504.780465 2202.87562,514.904205 2236.85337,531.540725 L2168.74595,546.832957 C2191.85689,572.083344 2214.55936,597.048385 2236.85337,621.728079 C2259.14737,646.407774 2286.04955,686.204037 2317.55989,741.116868 C2266.60221,724.083917 2226.40108,713.522462 2196.9565,709.432505 C2167.51191,705.342548 2131.67859,705.342548 2089.45654,709.432505 C2107.75407,720.823523 2122.4222,735.57111 2133.46092,753.675266 C2144.49965,771.779422 2156.26133,800.378259 2168.74595,839.471777 Z" id="Path-56" fill="#6B6770"></path>
                    <path d="M863.778424,857.910503 C863.778424,857.910503 941.208839,754.585641 1142.71099,665.326994 C1200.42684,639.760825 1313.37201,612.738526 1481.54653,584.260099 L1684.28154,552.486447 C1597.21261,535.033576 1529.63428,524.323133 1481.54653,520.35512 C1433.45878,516.387107 1371.23888,516.387107 1294.88684,520.35512 C1138.10652,590.351048 1042.69709,638.675006 1008.65854,665.326994 C838.70774,798.39748 863.778424,857.910503 863.778424,857.910503 Z" id="Path-59" fill="#2C2330"></path>
                    <path d="M2310.25007,207.87704 C2531.65984,343.552271 2662.39099,456.813297 2702.44351,547.66012 C2742.49603,638.506943 2719.60168,769.840529 2633.76047,941.660879 C2700.87086,872.256912 2750.95924,803.955966 2784.02562,736.758043 C2817.09201,669.56012 2835.51587,598.629616 2839.2972,523.96653 C2770.18203,426.954657 2701.66979,358.16185 2633.76047,317.588107 C2565.85115,277.014365 2458.01435,240.444009 2310.25007,207.87704 Z" id="Path-61" fill="#2F2330" opacity="0.642687116"></path>
                    <path d="M3195.56535,1548.99243 C3188.89651,1615.34025 3181.96461,1673.76013 3174.76964,1724.25207 C3167.57468,1774.74401 3155.40918,1850.34363 3138.27313,1951.05093 C3252.22451,1771.27178 3320.73675,1632.04033 3343.80986,1533.35658 C3366.88296,1434.67284 3368.27228,1274.93509 3347.97781,1054.14336 C3339.38173,1120.90002 3332.15694,1167.52099 3326.30346,1194.00627 C3300.04417,1312.82185 3277.19167,1373.14241 3275.22715,1378.15716 C3260.64652,1415.37645 3234.09259,1472.32154 3195.56535,1548.99243 Z" id="Path-61" fill="#2F2330" opacity="0.83492824" transform="translate(3250.248284, 1502.597143) rotate(-25.000000) translate(-3250.248284, -1502.597143) "></path>
                    <path d="M2266.17781,387.034252 C2337.65509,453.154994 2388.65954,502.738295 2419.19118,535.784155 C2449.72281,568.830015 2488.67743,616.613768 2536.05504,679.135416 C2541.11204,604.553808 2541.11204,544.855064 2536.05504,500.039181 C2530.99804,455.223299 2520.0112,417.554989 2503.09451,387.034252 L2572.20454,420.060918 C2580.53725,395.298886 2580.53725,376.942461 2572.20454,364.991644 C2563.87183,353.040826 2540.83515,338.357927 2503.09451,320.942947 C2487.64642,316.04235 2476.50752,316.04235 2469.67781,320.942947 C2462.84811,325.843544 2455.60075,340.526443 2447.93575,364.991644 C2458.13296,375.46436 2465.38032,393.820784 2469.67781,420.060918 C2473.97531,446.301051 2473.97531,484.875463 2469.67781,535.784155 C2451.42049,498.32558 2434.59161,470.606168 2419.19118,452.625917 C2403.79074,434.645667 2378.15055,412.781778 2342.27061,387.034252 L2266.17781,387.034252 Z" id="Path-57" fill="#6B6770"></path>
                    <path d="M2498.4327,493.268591 C2589.1588,476.311568 2657.40454,466.125343 2703.16994,462.709917 C2748.93533,459.29449 2817.18108,459.29449 2907.90718,462.709917 C2818.26282,439.13034 2750.01708,429.088629 2703.16994,432.584785 C2656.3228,436.080941 2588.07705,456.308876 2498.4327,493.268591 Z" id="Path-44" fill="#6A676F" transform="translate(2703.169939, 462.588107) rotate(79.000000) translate(-2703.169939, -462.588107) "></path>
                    <path d="M822.460034,2054.95961 L900.526749,2122.04283 L911.227545,2147.86974 C903.246515,2143.11983 896.595318,2138.33721 891.273954,2133.52187 C879.998557,2123.31868 857.060584,2097.13126 822.460034,2054.95961 Z" id="Path-62" fill="#91331F"></path>
                    <path d="M892.870228,2398.69217 C867.295042,2337.97313 855.217101,2291.68287 856.636406,2259.82139 C858.05571,2227.95992 873.014467,2181.18202 901.512675,2119.48769 C887.966447,2180.40827 880.466447,2227.18617 879.012675,2259.82139 C877.558903,2292.45661 882.178087,2338.74687 892.870228,2398.69217 Z" id="Path-63" fill="#91331F"></path>
                    <path d="M3397.62656,2009.42408 L3475.69328,2076.50731 L3486.39407,2102.33421 C3478.41304,2097.58431 3471.76184,2092.80169 3466.44048,2087.98635 C3455.16508,2077.78316 3432.22711,2051.59573 3397.62656,2009.42408 Z" id="Path-62" fill="#91331F" transform="translate(3442.010316, 2055.879148) scale(-1, 1) translate(-3442.010316, -2055.879148) "></path>
                    <path d="M3468.03675,2353.15665 C3442.46157,2292.4376 3430.38363,2246.14734 3431.80293,2214.28587 C3433.22224,2182.42439 3448.18099,2135.64649 3476.6792,2073.95216 C3463.13297,2134.87275 3455.63297,2181.65065 3454.1792,2214.28587 C3452.72543,2246.92109 3457.34461,2293.21135 3468.03675,2353.15665 Z" id="Path-63" fill="#91331F" transform="translate(3454.185099, 2213.554408) scale(-1, 1) translate(-3454.185099, -2213.554408) "></path>
                    <g id="Group-11" transform="translate(0.000000, 3527.528260)">
                        <g id="Group-6" transform="translate(2250.000000, 1479.500000) rotate(-4.000000) translate(-2250.000000, -1479.500000) translate(88.000000, 148.000000)">
                            <path d="M1476.21366,-2.27373675e-13 L1553.19196,68.580471 L1618.31518,135.478649 L1521.99705,140.483109 C1611.815,225.207603 1677.9519,287.615959 1720.40774,327.708175 C1798.84479,401.778433 1891.24249,457.737433 1954.2962,496.235407 C1993.30113,520.050194 2050.49315,559.966217 2088.29519,563.450367 C2133.00199,567.570916 2161.97631,564.879039 2222.2783,548.334692 C2284.1108,531.37044 2408.50532,489.222259 2541.8709,405.481577 C2566.33688,390.119312 2638.1645,342.466054 2757.35377,262.521804 L2691.1287,236.555001 L2839.62133,110.265057 L3017.31158,280.699824 L3707.19907,398.978093 C3881.63432,515.048208 4008.10437,769.032245 4086.60923,1160.9302 C4165.11408,1552.82816 4237.76026,1881.61854 4304.54776,2147.30134 L4323.21366,2549.733 L3585.10683,2620.88608 L3666.86549,2198.64274 C3570.86796,2115.0038 3503.09519,2043.05037 3463.54718,1982.78244 C3435.69439,1940.33707 3427.28793,1873.07935 3392.05956,1788.31763 C3382.1981,1764.59032 3359.3153,1718.18088 3323.41115,1649.0893 L3260.22886,2662.84569 L1000.86549,2520.84569 L948.339449,1543.43784 C907.160842,1586.0208 880.157761,1620.31406 867.330206,1646.31763 C833.463277,1714.97147 823.01445,1797.25948 797.547176,1834.16866 C757.610795,1892.0476 689.838024,1966.20563 594.228864,2056.64274 L659.507549,2478.49591 L10,2435.733 C18.8868976,2227.60994 29.9499933,2076.62642 43.1892871,1982.78244 C79.8857484,1722.66719 143.480162,1499.02946 188.584613,1334.8665 C230.248443,1183.22608 292.983271,826.359364 381.851585,610.895822 C421.453566,514.879789 492.245992,414.368927 594.228864,309.363237 C560.376092,299.834052 608.335413,282.240524 738.106829,256.582655 C867.878244,230.924786 1063.80999,200.297175 1325.90208,164.699824 L1476.21366,-2.27373675e-13 Z" id="Path-71" fill="#1C2838"></path>
                            <path d="M1476.21366,-4.54747351e-13 L1315.90208,162.699824 C1138.10713,199.541562 1013.66272,222.737922 942.568858,232.288904 C768.749649,255.640348 643.115563,248.187127 550.187551,336.474727 C400.246757,478.928144 292.557202,757.97495 227.118886,1173.61515 C143.781388,1478.57904 87.9759934,1704.83692 59.7027018,1852.38879 C31.4294101,1999.94065 11.5285095,2193.72205 -4.54747351e-13,2433.733" id="Path-64" stroke="#070508" stroke-width="40"></path>
                            <path d="M4323.21366,116 L4162.90208,278.699824 C3985.10713,315.541562 3860.66272,338.737922 3789.56886,348.288904 C3615.74965,371.640348 3490.11556,364.187127 3397.18755,452.474727 C3247.24676,594.928144 3139.5572,873.97495 3074.11889,1289.61515 C2990.78139,1594.57904 2934.97599,1820.83692 2906.7027,1968.38879 C2878.42941,2115.94065 2858.52851,2309.72205 2847,2549.733" id="Path-64" stroke="#070508" stroke-width="40" transform="translate(3585.106829, 1332.866498) scale(-1, 1) translate(-3585.106829, -1332.866498) "></path>
                            <path d="M649.507549,2476.49591 C649.507549,2476.49591 627.747987,2335.87819 584.228864,2054.64274 C713.69754,1980.84682 798.814489,1850.8335 839.579712,1664.60278 C846.572581,1632.65675 895.249957,1597.01297 900.456918,1557.99282 C917.221744,1432.35984 917.221744,1169.62543 900.456918,769.789568 L990.865488,2518.84569" id="Path-65" stroke="#070508" stroke-width="40"></path>
                            <path d="M3315.50755,2618.49591 C3315.50755,2618.49591 3293.74799,2477.87819 3250.22886,2196.64274 C3379.69754,2122.84682 3464.81449,1992.8335 3505.57971,1806.60278 C3512.57258,1774.65675 3561.24996,1739.01297 3566.45692,1699.99282 C3583.22174,1574.35984 3583.22174,1311.62543 3566.45692,911.789568 L3656.86549,2660.84569" id="Path-65" stroke="#070508" stroke-width="40" transform="translate(3453.547176, 1786.317629) scale(-1, 1) translate(-3453.547176, -1786.317629) "></path>
                            <path d="M1315.90208,162.699824 C1368.7139,278.473175 1431.52704,375.587259 1504.3415,454.042076 C1577.15597,532.496893 1702.29752,626.76335 1879.76615,736.841447 L2089.26675,570.594841 L2182.16281,570.594841 L2335.96928,787.969563 L2921.63483,381.268294 L2921.63483,200.171853 L2849,116" id="Path-66" stroke="#070508" stroke-width="35"></path>
                            <path d="M1642.53754,140.483109 L1521.99705,140.483109 C1623.75288,251.513072 1705.47097,331.218591 1767.15132,379.599664 C1828.83167,427.980738 1931.95812,493.264305 2076.53068,575.450367 L2177.52162,575.450367 C2327.45953,522.537412 2436.23537,477.667427 2503.84914,440.84041 C2571.4629,404.013393 2658.26203,342.360071 2764.2465,255.880443 L2691.1287,236.555001" id="Path-67" stroke="#070508" stroke-width="25"></path>
                            <path d="M2067.59211,608.895822 C2028.11713,881.216767 1996.06447,1145.11117 1971.43414,1400.57903 C1946.80381,1656.0469 1914.99889,2046.15249 1876.01938,2570.89582" id="Path-68" stroke="#070508" stroke-width="10"></path>
                            <path d="M2214.59211,631.895822 C2175.11713,902.689994 2143.06447,1165.10487 2118.43414,1419.14044 C2093.80381,1673.17602 2061.99889,2061.09448 2023.01938,2582.89582" id="Path-68" stroke="#070508" stroke-width="10"></path>
                        </g>
                        <g id="Group-10" transform="translate(2084.626560, 851.895822)" fill="#7E8791">
                            <circle id="Oval" cx="92.5" cy="38.5" r="38.5"></circle>
                            <circle id="Oval-Copy" cx="72.5" cy="359.5" r="38.5"></circle>
                            <circle id="Oval-Copy-2" cx="53.5" cy="702.5" r="38.5"></circle>
                            <circle id="Oval-Copy-3" cx="45.5" cy="1097.5" r="38.5"></circle>
                            <circle id="Oval-Copy-4" cx="40.5" cy="1440.5" r="38.5"></circle>
                            <circle id="Oval-Copy-5" cx="38.5" cy="1835.5" r="38.5"></circle>
                        </g>
                    </g>
                </g>
                <path d="M2200.46228,2821.13477 C2209.10733,2869.51911 2217.13116,2905.12978 2224.53377,2927.9668 C2231.93638,2950.80382 2243.42858,2975.40001 2259.01037,3001.75536 C2292.89129,3059.88504 2316.88156,3088.94988 2330.98117,3088.94988 C2345.08079,3088.94988 2361.46886,3059.88504 2380.14539,3001.75536 C2390.55832,3050.29106 2401.30025,3089.03264 2412.37117,3117.98012 C2423.4421,3146.92761 2439.16607,3177.38723 2459.54311,3209.359 C2483.1036,3145.57936 2504.86963,3100.66942 2524.8412,3074.62917 C2554.79856,3035.56879 2547.78405,3040.54906 2624.0027,3001.75536 C2674.81514,2975.8929 2754.42213,2963.61581 2862.82366,2964.92408 L3226.24018,3074.62917 L3226.24018,3180.75645 C2913.21088,3127.50768 2732.17555,3106.58224 2683.13418,3117.98012 C2609.57212,3135.07696 2595.3196,3212.35986 2595.3196,3258.66542 C2595.3196,3304.97098 2620.80887,3381.03087 2624.0027,3410.262 C2626.13192,3429.74942 2657.27988,3483.56107 2717.44657,3571.69696 C2816.42002,3717.39479 2908.23673,3792.53697 2992.8967,3797.1235 C3005.49708,3797.80613 3091.40683,3808.6647 3113.64607,3786.55467 C3127.05345,3773.22519 3132.52526,3757.49902 3130.06151,3739.37617 L3226.24018,3739.37617 L3226.24018,4120.28054 C3141.8806,4118.59635 3080.06097,4112.7267 3040.78127,4102.67159 C3001.50158,4092.61648 2966.37685,4073.66958 2935.40708,4045.83089 C2871.3578,3980.70119 2828.33729,3931.10508 2806.34554,3897.04257 C2784.35379,3862.98005 2764.56338,3815.28978 2746.97431,3753.97174 L2746.97431,3857.34305 L2481.29663,3600.39544 C2446.61563,3553.5739 2420.68518,3501.99899 2403.50528,3445.67069 C2386.32538,3389.3424 2362.15067,3293.03144 2330.98117,3156.73783 L2380.14539,3473.95369 C2335.42537,3415.32255 2303.60028,3369.913 2284.67012,3337.72505 C2265.73997,3305.53709 2245.69451,3262.74841 2224.53377,3209.359 C2215.53079,3148.69698 2207.50696,3097.0349 2200.46228,3054.37277 C2193.41761,3011.71063 2193.41761,2933.96463 2200.46228,2821.13477 Z" id="Path-30" fill="#151B18" transform="translate(2710.709478, 3470.707652) scale(-1, 1) translate(-2710.709478, -3470.707652) "></path>
                <path d="M1099.92316,2821.13477 C1109.32231,2869.51911 1118.04605,2905.12978 1126.09438,2927.9668 C1134.14272,2950.80382 1146.63737,2975.40001 1163.57835,3001.75536 C1200.41467,3059.88504 1226.49758,3088.94988 1241.8271,3088.94988 C1257.15661,3088.94988 1274.9742,3059.88504 1295.27987,3001.75536 C1306.60111,3050.29106 1318.28005,3089.03264 1330.31668,3117.98012 C1342.35331,3146.92761 1359.44888,3177.38723 1381.60338,3209.359 C1407.21903,3145.57936 1430.88369,3100.66942 1452.59737,3074.62917 C1485.16788,3035.56879 1477.5415,3040.54906 1560.40864,3001.75536 C1615.65341,2975.8929 1702.20444,2963.61581 1820.06175,2964.92408 L2215.17878,3074.62917 L2215.17878,3180.75645 C1899.7145,3153.34615 1715.32275,3145.33995 1662.00354,3156.73783 C1582.02473,3173.83467 1560.40864,3204.97618 1560.40864,3251.28174 C1560.40864,3297.5873 1556.93622,3376.88394 1560.40864,3406.11507 C1562.46159,3423.39688 1573.24582,3470.60908 1624.92362,3544.05353 C1629.32058,3550.30248 1641.68056,3559.51696 1662.00354,3571.69696 C1687.02337,3621.57812 1714.06198,3654.23266 1743.11938,3669.66059 C1763.23082,3680.3387 1831.1103,3793.64647 1969.17748,3800.52626 C1977.71307,3800.95158 2020.50441,3800.95158 2097.55152,3800.52626 L2097.55152,3739.37617 L2215.17878,3739.37617 L2215.17878,4120.28054 C2123.46059,4118.59635 2056.24848,4112.7267 2013.54245,4102.67159 C1970.83643,4092.61648 1932.6478,4073.66958 1898.97656,4045.83089 C1829.34032,3980.70119 1782.56716,3931.10508 1758.65709,3897.04257 C1734.74702,3862.98005 1713.23031,3815.28978 1694.10696,3753.97174 L1694.10696,3857.34305 L1405.25445,3600.39544 C1367.54825,3553.5739 1339.35591,3501.99899 1320.67742,3445.67069 C1301.99893,3389.3424 1275.71549,3293.03144 1241.8271,3156.73783 L1295.27987,3473.95369 C1246.65896,3415.32255 1212.0578,3369.913 1191.47638,3337.72505 C1170.89496,3305.53709 1149.10096,3262.74841 1126.09438,3209.359 C1116.30608,3148.69698 1107.58234,3097.0349 1099.92316,3054.37277 C1092.26398,3011.71063 1092.26398,2933.96463 1099.92316,2821.13477 Z" id="Path-30" fill="#151B18"></path>
            </g>
        </g>
    </g>
</svg>